<svg xmlns="http://www.w3.org/2000/svg" width="276.183" height="73.704" viewBox="0 0 276.183 73.704">
  <g id="Raggruppa_29" data-name="Raggruppa 29" transform="translate(-241.9 -3809.946)">
    <g id="Raggruppa_28" data-name="Raggruppa 28">
      <g id="Raggruppa_27" data-name="Raggruppa 27">
        <path id="Tracciato_7" data-name="Tracciato 7" d="M315.622,3813.328a2.1,2.1,0,0,0-1.661-3.382H244a2.1,2.1,0,0,0-2.1,2.1v69.506a2.1,2.1,0,0,0,2.1,2.1H313.96a2.1,2.1,0,0,0,1.663-3.381l-25.814-33.5Zm-66.186,1.7h21.378a2.456,2.456,0,0,1,1.945,3.955l-21.378,27.731a2.456,2.456,0,0,1-4.4-1.5v-27.731A2.456,2.456,0,0,1,249.436,3815.027Zm-2.456,61.086V3861.58a2.456,2.456,0,0,1,.511-1.5l33.995-44.1a2.453,2.453,0,0,1,1.945-.957h19.463a2.455,2.455,0,0,1,1.943,3.956l-45.262,58.631a2.455,2.455,0,0,1-1.943.955h-8.2A2.457,2.457,0,0,1,246.98,3876.113Zm55.926,2.456H270.255a2.456,2.456,0,0,1-1.944-3.957l16.342-21.168a2.455,2.455,0,0,1,3.889,0l16.31,21.169A2.456,2.456,0,0,1,302.906,3878.569Z" fill="#fff"/>
        <g id="Raggruppa_26" data-name="Raggruppa 26">
          <g id="Raggruppa_24" data-name="Raggruppa 24">
            <g id="Raggruppa_23" data-name="Raggruppa 23">
              <path id="Tracciato_8" data-name="Tracciato 8" d="M350.521,3838.08l-3.1,3.451v7.367h-6.125v-27.489h6.125v11.554l10.042-11.554h8.065l-10.7,11.9,10.739,15.586h-7.638Z" fill="#fff"/>
              <path id="Tracciato_9" data-name="Tracciato 9" d="M374.752,3848.9v-27.489h6.2V3848.9Z" fill="#fff"/>
              <path id="Tracciato_10" data-name="Tracciato 10" d="M402.976,3821.409c5.428,0,8.568,3.14,8.568,7.366a6.154,6.154,0,0,1-4.032,5.894,6.434,6.434,0,0,1,4.885,6.436c0,4.5-3.412,7.793-8.607,7.793H392.7v-27.489Zm-.969,11.011c2.132,0,3.528-1.125,3.528-2.986,0-1.783-1.2-2.946-3.606-2.946h-3.257v5.932Zm.5,11.476c2.365,0,3.8-1.24,3.8-3.218,0-1.9-1.395-3.218-3.8-3.218h-3.839v6.436Z" fill="#fff"/>
              <path id="Tracciato_11" data-name="Tracciato 11" d="M435.155,3820.827a14.326,14.326,0,0,1,0,28.652c-7.755,0-14.307-5.621-14.307-14.306A13.923,13.923,0,0,1,435.155,3820.827Zm0,22.6c3.8,0,7.909-2.559,7.909-8.3s-4.11-8.336-7.909-8.336c-3.839,0-7.949,2.6-7.949,8.336S431.316,3843.431,435.155,3843.431Z" fill="#fff"/>
              <path id="Tracciato_12" data-name="Tracciato 12" d="M468.845,3838.08l-3.1,3.451v7.367h-6.126v-27.489h6.126v11.554l10.042-11.554h8.065l-10.7,11.9,10.74,15.586H476.25Z" fill="#fff"/>
              <path id="Tracciato_13" data-name="Tracciato 13" d="M503.815,3820.827a14.326,14.326,0,0,1,0,28.652c-7.754,0-14.307-5.621-14.307-14.306A13.924,13.924,0,0,1,503.815,3820.827Zm0,22.6c3.8,0,7.91-2.559,7.91-8.3s-4.11-8.336-7.91-8.336c-3.838,0-7.948,2.6-7.948,8.336S499.977,3843.431,503.815,3843.431Z" fill="#fff"/>
            </g>
          </g>
          <g id="Raggruppa_25" data-name="Raggruppa 25">
            <path id="Tracciato_14" data-name="Tracciato 14" d="M341.294,3872.589v-7.873h2.854a3.937,3.937,0,1,1-.012,7.873Zm2.776-1.655a2.283,2.283,0,0,0,0-4.563h-1.022v4.563Z" fill="#fff"/>
            <path id="Tracciato_15" data-name="Tracciato 15" d="M355.806,3872.589v-7.873h1.777v7.873Z" fill="#fff"/>
            <path id="Tracciato_16" data-name="Tracciato 16" d="M371.582,3872.589l-.112-.8a2.607,2.607,0,0,1-2.21.967,3.916,3.916,0,0,1-3.986-4.1,4,4,0,0,1,4.1-4.109,3.536,3.536,0,0,1,3.642,2.432l-1.688.589a1.9,1.9,0,0,0-1.954-1.377,2.486,2.486,0,0,0,.044,4.964,1.867,1.867,0,0,0,1.944-1.289h-2.366v-1.488H373v4.209Z" fill="#fff"/>
            <path id="Tracciato_17" data-name="Tracciato 17" d="M380.93,3872.589v-7.873h1.777v7.873Z" fill="#fff"/>
            <path id="Tracciato_18" data-name="Tracciato 18" d="M394.384,3866.392v6.2H392.63v-6.2h-2.421v-1.676h6.607v1.676Z" fill="#fff"/>
            <path id="Tracciato_19" data-name="Tracciato 19" d="M408.319,3870.99h-3.043l-.566,1.6h-1.844l2.965-7.873h2.032l2.932,7.873h-1.91Zm-2.466-1.6h1.911l-.945-2.721Z" fill="#fff"/>
            <path id="Tracciato_20" data-name="Tracciato 20" d="M418.212,3872.589v-7.873h1.754v6.2h3.4v1.676Z" fill="#fff"/>
            <path id="Tracciato_21" data-name="Tracciato 21" d="M447.321,3872.589v-5.219l-2.054,5.219h-1.422l-2.054-5.153v5.153h-1.666v-7.873h2.287l2.166,5.319,2.054-5.319h2.41v7.873Z" fill="#fff"/>
            <path id="Tracciato_22" data-name="Tracciato 22" d="M461.912,3870.99H458.87l-.567,1.6h-1.844l2.966-7.873h2.032l2.932,7.873h-1.91Zm-2.465-1.6h1.91l-.944-2.721Z" fill="#fff"/>
            <path id="Tracciato_23" data-name="Tracciato 23" d="M474.448,3869.491l-.889.989v2.109H471.8v-7.873h1.754v3.309l2.877-3.309h2.309l-3.065,3.409,3.076,4.464h-2.187Z" fill="#fff"/>
            <path id="Tracciato_24" data-name="Tracciato 24" d="M486.173,3872.589v-7.873h4.986v1.655h-3.231v1.5h2.931v1.544h-2.931v1.51h3.243v1.666Z" fill="#fff"/>
            <path id="Tracciato_25" data-name="Tracciato 25" d="M501.473,3869.657h-.623v2.932H499.1v-7.873h3.121a2.4,2.4,0,0,1,2.554,2.465,2.259,2.259,0,0,1-1.555,2.221l1.6,3.187h-1.933Zm.411-1.51c.722,0,1.11-.4,1.11-.955,0-.589-.388-.955-1.11-.955H500.85v1.91Z" fill="#fff"/>
            <path id="Tracciato_26" data-name="Tracciato 26" d="M516.362,3867.092a1.191,1.191,0,0,0-1.311-.988.965.965,0,0,0-1.076.844c0,.377.232.655.777.755l1.055.2a2.453,2.453,0,0,1,2.276,2.366,2.646,2.646,0,0,1-2.909,2.487,2.943,2.943,0,0,1-3.221-2.521l1.61-.388a1.464,1.464,0,0,0,1.633,1.354c.689,0,1.111-.333,1.111-.822,0-.4-.323-.688-.844-.788l-1.078-.2a2.367,2.367,0,0,1-2.143-2.309,2.658,2.658,0,0,1,2.82-2.533,2.617,2.617,0,0,1,2.877,2.1Z" fill="#fff"/>
          </g>
        </g>
      </g>
    </g>
  </g>
</svg>
