<svg xmlns="http://www.w3.org/2000/svg" class="w-12 h-12  md:w-14 md:h-14 lg:w-16 lg:h-16" viewBox="0 0 62.1 61.72"><g id="Raggruppa_3" data-name="Raggruppa 3" transform="translate(-73.968  -69.355)"><g id="Raggruppa_2" data-name="Raggruppa 2"><g id="Raggruppa_1" data-name="Raggruppa 1"><path id="Tracciato_1" data-name="Tracciato 1" d="M135.7,72.187a1.758,1.758,0,0,0-1.391-2.832H75.726a1.758,1.758,0,0,0-1.758,1.758v58.2a1.757,1.757,0,0,0,1.758,1.757H134.3a1.757,1.757,0,0,0,1.392-2.83l-21.613-28.053ZM80.279,73.61h17.9a2.056,2.056,0,0,1,1.629,3.311l-17.9,23.219a2.056,2.056,0,0,1-3.684-1.255V75.666A2.055,2.055,0,0,1,80.279,73.61Zm-2.056,51.146V112.588a2.055,2.055,0,0,1,.427-1.255L107.114,74.41a2.055,2.055,0,0,1,1.628-.8h16.3a2.056,2.056,0,0,1,1.628,3.312l-37.9,49.091a2.055,2.055,0,0,1-1.627.8H80.279A2.055,2.055,0,0,1,78.223,124.756Zm46.826,2.056H97.71a2.056,2.056,0,0,1-1.628-3.312l13.684-17.725a2.056,2.056,0,0,1,3.256,0L126.678,123.5A2.057,2.057,0,0,1,125.049,126.812Z" fill="currentColor"/></g></g></g></svg>